<svg width= '42' height= '42'>
    <path d="M16.5 0C7.4 0 0 7.4 0 16.5S7.4 33 16.5 33 33 25.6 33 16.5 25.6 0 16.5 0zm0 30.3c-7.6 0-13.8-6.2-13.8-13.8S8.9 2.7 16.5 2.7s13.8 6.2 13.8 13.8-6.2 13.8-13.8 13.8zm8.3-18.5l-5.7 5.7c-.2.2-.4.3-.7.3-.3 0-.5-.1-.7-.3l-1.1-1.1c-.4-.4-1-.4-1.4 0-.4.4-.4 1 0 1.4l1.1 1.1c.6.6 1.5.6 2.1 0l5.7-5.7c.4-.4.4-1 0-1.4-.4-.4-1-.4-1.4 0z"></path>
    <path d="M10 30
         A 20 20, 0, 0, 1, 50 30
         A 20 20, 0, 0, 1, 90 30
         Q 90 60, 50 90
         Q 10 60, 10 30 Z"></path>
</svg>